<svg fill="none" height="32" viewBox="0 0 32 32" width="32" xmlns="http://www.w3.org/2000/svg"><path d="m10 22.3331c0-3.4348 1.414-6.544 3.6876-8.7824-1.2252-.5624-2.5832-.884-4.0208-.884-5.3388 0-9.6668 4.328-9.6668 9.6664 0 5.3388 4.328 9.6668 9.6668 9.6668 1.4376 0 2.7952-.3216 4.0208-.884-2.2736-2.2384-3.6876-5.3476-3.6876-8.7828z" fill="#f66200"/><path d="m22.3331 22.0001c-3.4348 0-6.544-1.414-8.7824-3.6888-.5624 1.2264-.884 2.5844-.884 4.022 0 5.3388 4.328 9.6668 9.6664 9.6668 5.3388 0 9.6668-4.328 9.6668-9.6668 0-1.4376-.3216-2.7952-.884-4.022-2.2384 2.2748-5.3476 3.6888-8.7828 3.6888z" fill="#cf1e1f"/><path d="m22.3333 0c-1.4376 0-2.7952.3216-4.022.884 2.2748 2.2384 3.6888 5.3476 3.6888 8.7828 0 3.4348-1.414 6.544-3.6888 8.7824 1.2264.5624 2.5844.884 4.022.884 5.3388 0 9.6668-4.328 9.6668-9.6664 0-5.3388-4.328-9.6668-9.6668-9.6668z" fill="#f66200"/><path d="m9.6668 10c3.4348 0 6.544 1.414 8.7824 3.6876.5624-1.2252.884-2.5832.884-4.0208 0-5.3388-4.328-9.6668-9.6664-9.6668-5.3388 0-9.6668 4.328-9.6668 9.6668 0 1.4376.3216 2.7952.884 4.0208 2.2384-2.2736 5.3476-3.6876 8.7828-3.6876z" fill="#cf1e1f"/></svg>