<svg fill="none" height="20" viewBox="0 0 20 20" width="20" xmlns="http://www.w3.org/2000/svg"><path clip-rule="evenodd" d="m19.8632 19.4765-.3867.3867c-.1836.1836-.4805.1836-.6641 0l-5.039-5.039c-.0859-.0899-.1367-.207-.1367-.332v-.3985c-1.4492 1.336-3.3828 2.1563-5.51172 2.1563-4.48829 0-8.12498-3.6367-8.12498-8.12502 0-4.48829 3.63669-8.12498 8.12498-8.12498 4.48832 0 8.12502 3.63669 8.12502 8.12498 0 2.12892-.8203 4.06252-2.1602 5.51172h.4024c.125 0 .2421.0469.332.1367l5.039 5.039c.1836.1836.1836.4805 0 .6641zm-18.6132-11.35152c0 3.80072 3.07422 6.87502 6.87498 6.87502 3.80072 0 6.87502-3.0743 6.87502-6.87502 0-3.80076-3.0743-6.87498-6.87502-6.87498-3.80076 0-6.87498 3.07422-6.87498 6.87498z" fill="#cf1e1f" fill-rule="evenodd"/></svg>